<?xml version="1.0" encoding="UTF-8"?>
<svg id="Ebene_1" xmlns="http://www.w3.org/2000/svg" xmlns:xlink="http://www.w3.org/1999/xlink" version="1.1" viewBox="0 0 34.339 42.98">
  <!-- Generator: Adobe Illustrator 29.5.0, SVG Export Plug-In . SVG Version: 2.1.0 Build 137)  -->
  <defs>
    <linearGradient id="Unbenannter_Verlauf_5" data-name="Unbenannter Verlauf 5" x1="19.825" y1="43.709" x2="15.746" y2=".064" gradientUnits="userSpaceOnUse">
      <stop offset="0" stop-color="#006837"/>
      <stop offset=".808" stop-color="#7ac943"/>
    </linearGradient>
  </defs>
  <path d="M12.444,29.58c-1.968-3.407-.974-6.772,1.954-9.163l-1.902-2.009c-.688-.115-1.389.027-2.079-.056-.685-.083-1.987-.768-2.409-.607-.363.139-.816.643-1.311.839-5.034,1.993-9.043-4.224-5.108-7.777.334-.302,1.063-.614,1.256-.879.246-.338.303-1.079.557-1.578,1.208-2.384,3.759-3.685,6.38-3.761,1.755-4.07,7.076-6.032,10.834-3.375.358.253.797.922,1.084,1.051.82.367,2.476.387,3.6.848,2.534,1.04,4.718,3.716,4.782,6.515,9.076,3.184,1.855,15.453-5.116,8.429-1.263.327-2.411.101-3.626-.221-.338,2.327-1.155,4.799-2.844,6.495,1.963.968,3.724,1.655,4.946,3.59.23.364.602,1.547.857,1.634,2.606.301,5.819-.317,8.348.015,1.064.139,1.032.941.923,1.832-.158,1.283-1.545,6.649-2.189,7.595-.257.378-1.305,1.118-1.326,1.205-.174.715.368,2.023-.476,2.509-.514.296-4.547.32-5.293.202-1.185-.188-1.608-1.85-2.538-2.444l-8.769.054c-.615.638-1.18,2.16-2.085,2.363-.593.133-4.885.117-5.349-.08-.82-.348-.434-2.037-.571-2.604-.024-.099-1.155-.901-1.464-1.423-.59-.998-2.021-6.491-2.099-7.692-.027-.414.138-1.508.624-1.508h10.408ZM20.328,3.903c-.331-.279-.52-.797-1.064-1.159-2.223-1.481-5.335-.62-6.894,1.409-.692.9-.716,2.282-1.804,2.466-1.836.311-3.146.002-4.62,1.607-1.026,1.117-.868,2.579-1.318,3.13-.219.269-1.089.453-1.525.788-2.301,1.768-.569,5.365,2.273,4.763.109-.023,1.154-.451,1.194-.502.057-.075-.59-1.248.362-1.678.923-.417,1.048.348,1.609.697,2.328,1.448,4.713,1.503,6.568-.7-.943-.418-4.373-3.717-2.846-4.628,1.269-.757,1.94,1.332,2.764,2.044,1.025.885,2.147,1.138,3.465.892-.376-.935-.372-2.765.978-2.685,1.476.088.821,2.472,1.019,3.447.207,1.017,1.358,2.23,2.404,2.399,1.961.317,2.431-1.177,3.655-.988.43.066.64.347.658.784.042.991-.988.945.372,1.747,2.96,1.745,6.101-1.803,4.156-4.69-1.084-1.609-3.025-1.292-3.469-2.046-.285-.483-.179-1.841-.489-2.714-.522-1.473-2.025-2.911-3.497-3.442-1.055-.381-3.342-.425-3.954-.94ZM22.051,29.58c-.878-2.485-3.565-2.686-5.462-3.7-1.729-.925.397-2.661.984-3.535,1.267-1.887,1.317-3.846,2.09-5.92-.235-.38-.687-1.409-1.08-1.439-.143-.011-1.407.215-1.512.274-.176.098-.544.881-.801,1.156-.47.504-.993.888-1.511,1.333.541.666,1.789,1.647,1.795,2.489.009,1.351-1.832,2.445-2.478,3.591-1.136,2.015-.436,3.971.77,5.751h7.206ZM31.481,31.537H3.548c.479,1.779.756,3.91,1.414,5.613.151.392.472,1.134.883,1.249l23.319-.017c.261-.213.513-.446.674-.749.821-1.549.928-4.395,1.643-6.096ZM10.487,40.433h-3.558c-.048.463.254.5.614.543.362.043,2.356.027,2.655-.053.242-.065.332-.252.29-.49ZM28.1,40.433h-3.736c.045.911.953.36,1.505.348.657-.014,1.332-.048,1.972.129l.259-.477Z" fill="url(#Unbenannter_Verlauf_5)"/>
</svg>