<?xml version="1.0" encoding="UTF-8"?>
<svg id="Ebene_1" xmlns="http://www.w3.org/2000/svg" xmlns:xlink="http://www.w3.org/1999/xlink" version="1.1" viewBox="0 0 216.931 53.876">
  <!-- Generator: Adobe Illustrator 29.5.0, SVG Export Plug-In . SVG Version: 2.1.0 Build 137)  -->
  <defs>
    <linearGradient id="Unbenannter_Verlauf_5" data-name="Unbenannter Verlauf 5" x1="175.643" y1="53.501" x2="171.329" y2="7.336" gradientUnits="userSpaceOnUse">
      <stop offset="0" stop-color="#006837"/>
      <stop offset=".808" stop-color="#7ac943"/>
    </linearGradient>
    <linearGradient id="Unbenannter_Verlauf_51" data-name="Unbenannter Verlauf 5" x1="201.716" y1="53.799" x2="198.581" y2="20.255" xlink:href="#Unbenannter_Verlauf_5"/>
    <linearGradient id="Unbenannter_Verlauf_52" data-name="Unbenannter Verlauf 5" x1="-689.799" y1="-445.435" x2="-635.115" y2="-445.435" gradientTransform="translate(400.946 -674.223) rotate(-95.339)" xlink:href="#Unbenannter_Verlauf_5"/>
    <linearGradient id="Unbenannter_Verlauf_53" data-name="Unbenannter Verlauf 5" x1="1.596" y1="15.882" x2="27.52" y2="15.882" xlink:href="#Unbenannter_Verlauf_5"/>
    <linearGradient id="Unbenannter_Verlauf_54" data-name="Unbenannter Verlauf 5" x1="26.493" y1="28.186" x2="46.769" y2="28.186" xlink:href="#Unbenannter_Verlauf_5"/>
  </defs>
  <path d="M64.379,9.776v43.57h-8.243V9.776h8.243Z" fill="#fff"/>
  <path d="M102.591,39.51h-23.846c.196,2.355,1.021,4.2,2.473,5.534,1.452,1.335,3.238,2.002,5.358,2.002,3.061,0,5.24-1.314,6.535-3.945h8.891c-.942,3.141-2.748,5.721-5.417,7.743-2.669,2.022-5.946,3.032-9.832,3.032-3.141,0-5.957-.697-8.449-2.09-2.493-1.393-4.436-3.365-5.829-5.918-1.394-2.551-2.09-5.495-2.09-8.831,0-3.376.686-6.339,2.061-8.891,1.373-2.551,3.297-4.514,5.77-5.888,2.473-1.373,5.319-2.06,8.538-2.06,3.1,0,5.877.668,8.331,2.002,2.453,1.335,4.357,3.229,5.711,5.682,1.354,2.453,2.032,5.269,2.032,8.449,0,1.178-.08,2.238-.236,3.18ZM94.289,33.975c-.04-2.12-.805-3.817-2.296-5.093-1.493-1.275-3.318-1.914-5.476-1.914-2.041,0-3.759.618-5.151,1.854-1.394,1.237-2.248,2.954-2.561,5.152h15.484Z" fill="#fff"/>
  <path d="M108.684,28.146c1.315-2.551,3.101-4.514,5.358-5.888,2.257-1.373,4.778-2.06,7.566-2.06,2.434,0,4.563.491,6.388,1.472,1.825.982,3.287,2.218,4.387,3.71v-4.651h8.301v32.618h-8.301v-4.769c-1.06,1.531-2.523,2.797-4.387,3.798-1.865,1.001-4.014,1.502-6.447,1.502-2.748,0-5.25-.707-7.507-2.12-2.257-1.414-4.043-3.405-5.358-5.976-1.315-2.571-1.972-5.525-1.972-8.861,0-3.297.657-6.221,1.972-8.773ZM131.204,31.885c-.785-1.432-1.845-2.532-3.179-3.297-1.335-.765-2.767-1.148-4.298-1.148s-2.944.374-4.239,1.119c-1.296.746-2.346,1.835-3.15,3.268-.805,1.433-1.207,3.131-1.207,5.093s.402,3.68,1.207,5.152c.804,1.472,1.864,2.601,3.179,3.385,1.315.786,2.717,1.178,4.21,1.178,1.531,0,2.963-.383,4.298-1.148,1.334-.765,2.394-1.864,3.179-3.297.785-1.432,1.178-3.15,1.178-5.151s-.393-3.719-1.178-5.152Z" fill="#fff"/>
  <path d="M163.705,27.499h-5.711v25.847h-8.361v-25.847h-3.71v-6.771h3.71v-1.649c0-4.004,1.138-6.948,3.415-8.832,2.276-1.884,5.712-2.767,10.304-2.649v6.948c-2.002-.039-3.395.294-4.18,1.001-.786.706-1.178,1.982-1.178,3.827v1.354h5.711v6.771Z" fill="#fff"/>
  <path d="M169.622,15.457c-.962-.922-1.443-2.07-1.443-3.444s.48-2.522,1.443-3.445c.961-.922,2.168-1.384,3.621-1.384s2.659.462,3.621,1.384c.961.922,1.443,2.071,1.443,3.445s-.482,2.522-1.443,3.444c-.962.923-2.169,1.384-3.621,1.384s-2.66-.461-3.621-1.384ZM177.306,20.728v32.618h-8.243V20.728h8.243Z" fill="url(#Unbenannter_Verlauf_5)"/>
  <path d="M191.436,51.786c-2.513-1.393-4.485-3.365-5.918-5.918-1.433-2.551-2.149-5.495-2.149-8.831s.736-6.28,2.208-8.832c1.472-2.551,3.483-4.523,6.035-5.917,2.551-1.393,5.396-2.09,8.537-2.09s5.985.697,8.537,2.09c2.551,1.394,4.563,3.366,6.035,5.917,1.472,2.552,2.208,5.496,2.208,8.832s-.756,6.281-2.267,8.831c-1.512,2.552-3.553,4.524-6.124,5.918-2.571,1.394-5.446,2.09-8.625,2.09-3.141,0-5.967-.697-8.479-2.09ZM204.124,45.603c1.315-.726,2.365-1.815,3.15-3.268.785-1.452,1.178-3.218,1.178-5.299,0-3.101-.815-5.485-2.444-7.154-1.629-1.668-3.621-2.502-5.976-2.502s-4.327.834-5.917,2.502c-1.59,1.669-2.384,4.053-2.384,7.154s.774,5.486,2.326,7.154c1.55,1.669,3.503,2.502,5.858,2.502,1.491,0,2.894-.363,4.209-1.089Z" fill="url(#Unbenannter_Verlauf_51)"/>
  <path d="M39.01,50.641s-14.833,9.03-28.263-6.258C-2.684,29.095.277,1.101.277,1.101l38.732,49.539Z" fill="url(#Unbenannter_Verlauf_52)"/>
  <g>
    <path d="M25.206,7.012C13.579,1.413,1.596,0,1.596,0l25.924,31.764-2.313-24.751Z" fill="url(#Unbenannter_Verlauf_53)"/>
    <path d="M41.496,19.77c-3.835-5.29-9.322-9.216-15.003-12.115l2.412,25.806,12.452,15.257s12.083-12.472.14-28.948Z" fill="url(#Unbenannter_Verlauf_54)"/>
  </g>
</svg>