<?xml version="1.0" encoding="UTF-8"?>
<svg id="Ebene_1" xmlns="http://www.w3.org/2000/svg" xmlns:xlink="http://www.w3.org/1999/xlink" version="1.1" viewBox="0 0 781.11 775.464">
  <!-- Generator: Adobe Illustrator 29.5.0, SVG Export Plug-In . SVG Version: 2.1.0 Build 137)  -->
  <path d="M837.52,170.524h-1.154c-.965,0-2.006-1.083-2.115-2.019-.242-2.075.169-4.585-.005-6.706.14-1.032.907-1.916,1.959-2.068l10.848-.002c1.27.165,2.029,1.215,2.119,2.446.144,1.981-.108,4.125.003,6.123-.087,1.202-.936,2.071-2.13,2.22l-5.137.018c-.879.704-1.643,1.801-2.507,2.487-.458.363-.966.434-1.446.048-.165-.133-.434-.545-.434-.747v-1.799h0ZM838.702,171.974c.701-.648,1.361-1.342,2.041-2.012.3-.295.442-.633.936-.675,1.689-.144,3.728.201,5.373.003.39-.047.85-.557.887-.938.199-2.049-.155-4.418-.001-6.501-.082-.428-.413-.757-.805-.913h-10.903c-.423.164-.773.552-.806,1.02l.026,6.422c.427,1.337,1.76.792,2.795.91.154.018.305.06.407.184l.05,2.501h0Z" fill="#fff"/>
  <g id="Q4SMc6">
    <image id="Q4SMc61" data-name="Q4SMc6" width="1024" height="1024" transform="translate(813.172 174.328)" xlink:href="Meine_Inserate-1.png"/>
  </g>
  <g id="QPlxYj">
    <g>
      <path d="M360.5,200.78l136.013,350.988c-10.353-2.157-20.979-3.885-31.508-4.978-94.954-9.853-195.496-1.744-286.009,28.968-28.614,9.709-68.027,31.271-97.684,25.721-49.776-9.314-62.702-48.198-76.813-91.187-14.245-43.398,6.392-82.957,47.048-100.983,27.339-12.121,56.813-20.947,84.326-33.674,72.818-33.684,148.048-93.827,203.155-151.845,6.747-7.104,12.715-15.272,19.401-22.374.796-.845.689-.912,2.071-.637ZM159.504,393.775l-22.98,9.491,53.459,138.372,21.474-7.916.017-2.359-51.969-137.588Z" fill="#fff"/>
      <path d="M561.715,303.985l-34.213,52.785-14.974-36.608,28.504-44.279c-17.731-54.565-19.511-113.922,14.667-162.421C605.008,43.493,691.845,25.466,768.493.178c5.156-1.638,6.816,8.477,7.724,12.397,8.715,37.628,5.013,100.91-4.987,138.418-26.016,97.584-113.632,145.97-209.516,152.992ZM555.523,293.778c8.694-2.396,15.121-10.237,20.406-17.087,10.519-13.635,18.973-30.864,28.565-45.435,17.854-27.124,37.34-53.164,57.048-78.952l35.962-44.527c-36.43,23.563-68.677,55.005-95.386,89.103-14.525,18.544-32.405,42.904-41.461,64.539-4.293,10.256-8.147,21.141-5.133,32.359Z" fill="#fff"/>
      <path d="M384.869,160.132c13.553-14.285,38.979-8.697,44.112,10.678l140.306,360.694c7.23,33.433-34.952,46.972-47.944,19.943l-143.755-370.265c-.771-7.003,2.435-15.943,7.28-21.05Z" fill="#fff"/>
      <path d="M215.352,589.904l92.346,135.187c4.358,9.461-1.355,20.645-9.862,25.508-11.425,6.532-37.937,16.391-51.056,20.944-15.574,5.405-28.979,7.101-40.101-7.431l-78.155-144.847,86.828-29.361Z" fill="#fff"/>
    </g>
  </g>
</svg>