<?xml version="1.0" encoding="UTF-8"?>
<svg id="Ebene_1" xmlns="http://www.w3.org/2000/svg" version="1.1" viewBox="0 0 15.046 13.599">
  <!-- Generator: Adobe Illustrator 29.5.0, SVG Export Plug-In . SVG Version: 2.1.0 Build 137)  -->
  <path d="M3.348,10.795h-1.154c-.965,0-2.006-1.083-2.115-2.019-.242-2.075.169-4.585-.005-6.706C.214,1.038.981.154,2.033.002l10.848-.002c1.27.165,2.029,1.215,2.119,2.446.144,1.981-.108,4.125.003,6.123-.087,1.202-.936,2.071-2.13,2.22l-5.137.018c-.879.704-1.643,1.801-2.507,2.487-.458.363-.966.434-1.446.048-.165-.133-.434-.545-.434-.747v-1.799h0ZM4.53,12.245c.701-.648,1.361-1.342,2.041-2.012.3-.295.442-.633.936-.675,1.689-.144,3.728.201,5.373.003.39-.047.85-.557.887-.938.199-2.049-.155-4.418-.001-6.501-.082-.428-.413-.757-.805-.913H2.058c-.423.164-.773.552-.806,1.02l.026,6.422c.427,1.337,1.76.792,2.795.91.154.018.305.06.407.184l.05,2.501h0Z" fill="#fff"/>
</svg>