<?xml version="1.0" encoding="UTF-8"?>
<svg id="Ebene_1" xmlns="http://www.w3.org/2000/svg" version="1.1" viewBox="0 0 12.836 12.682">
  <!-- Generator: Adobe Illustrator 29.5.0, SVG Export Plug-In . SVG Version: 2.1.0 Build 137)  -->
  <path d="M7.146,5.698h5.236c.302,0,.5.493.444.766-.027.13-.264.469-.391.469h-5.289v5.236c0,.215-.406.504-.618.514-.214.01-.671-.269-.671-.46v-5.289H.407C.211,6.933-.001,6.513,0,6.315c.001-.184.221-.617.407-.617h5.45V.462c0-.039.163-.276.217-.32.233-.191.626-.188.855,0,.054.044.217.281.217.32v5.236Z"/>
</svg>