<?xml version="1.0" encoding="UTF-8"?>
<svg id="Ebene_1" xmlns="http://www.w3.org/2000/svg" version="1.1" viewBox="0 0 14.073 14.073">
  <!-- Generator: Adobe Illustrator 29.5.0, SVG Export Plug-In . SVG Version: 2.1.0 Build 137)  -->
  <path d="M7.45,6.671h2.976c.171,0,.284.28.253.436-.015.074-.15.267-.222.267h-3.007v2.976c0,.122-.231.286-.351.292-.122.006-.381-.153-.381-.261v-3.007h-3.098c-.112,0-.232-.239-.232-.351,0-.105.126-.351.232-.351h3.098v-2.976c0-.022.093-.157.123-.182.132-.109.356-.107.486,0,.031.025.123.16.123.182v2.976Z" fill="#fff"/>
  <path d="M7.036,14.073c-3.88,0-7.036-3.156-7.036-7.036S3.157,0,7.036,0s7.036,3.157,7.036,7.037-3.157,7.036-7.036,7.036ZM7.036,1.16C3.796,1.16,1.16,3.796,1.16,7.037s2.636,5.876,5.876,5.876,5.876-2.636,5.876-5.876S10.276,1.16,7.036,1.16Z" fill="#fff"/>
</svg>