<?xml version="1.0" encoding="UTF-8"?>
<svg id="Ebene_1" xmlns="http://www.w3.org/2000/svg" version="1.1" viewBox="0 0 15.44 14.947">
  <!-- Generator: Adobe Illustrator 29.5.0, SVG Export Plug-In . SVG Version: 2.1.0 Build 137)  -->
  <path d="M10.381,4.567l4.46.56c.662.154.777.929.336,1.384l-3.187,2.99.839,4.917c-.131.428-.557.638-.984.472l-4.078-2.308-4.108,2.279c-.63.253-1.127-.137-1.019-.805l.806-4.607c-.745-.686-1.528-1.349-2.258-2.051-.234-.225-1.092-1.021-1.155-1.261-.132-.498.15-.943.66-1.008l4.354-.56c.185-.413.359-.836.553-1.245.403-.848.939-2.176,1.432-2.918.349-.526.977-.543,1.344-.034l2.006,4.196ZM13.7,6.189c-1.206-.174-2.474-.237-3.671-.438-.348-.058-.546-.048-.743-.384l-1.547-3.367c-.167.228-.3.528-.421.786-.379.803-.731,1.783-1.168,2.537-.195.335-.328.359-.699.429l-3.672.49,2.846,2.711.099.174-.689,4.149c.94-.528,1.859-1.111,2.809-1.62.345-.185.788-.56,1.158-.333l3.389,1.9-.676-4.136,2.985-2.898Z"/>
</svg>