<?xml version="1.0" encoding="UTF-8"?>
<svg id="Ebene_1" xmlns="http://www.w3.org/2000/svg" version="1.1" viewBox="0 0 37.727 41.958">
  <!-- Generator: Adobe Illustrator 29.5.0, SVG Export Plug-In . SVG Version: 2.1.0 Build 137)  -->
  <path d="M10.829,23.925c2.168-.276,3.267.78,5.19,1.252,1.879.461,3.713.468,5.596.027,1.286-.301,2.623-1.161,3.857-1.303,3.427-.396,8.253,3.84,10.292,6.382.383.477,2.051,2.707,1.959,3.144-.166.797-3.941,3.748-4.794,4.315-8.516,5.66-19.82,5.621-28.281-.109-.793-.537-4.626-3.542-4.649-4.308,1.761-3.326,4.755-6.401,8.052-8.24.785-.438,1.903-1.049,2.778-1.161Z" fill="#006837"/>
  <circle cx="18.871" cy="10.948" r="10.948" fill="#006837"/>
</svg>