<?xml version="1.0" encoding="UTF-8"?>
<svg id="Ebene_1" xmlns="http://www.w3.org/2000/svg" xmlns:xlink="http://www.w3.org/1999/xlink" version="1.1" viewBox="0 0 29.197 46.259">
  <!-- Generator: Adobe Illustrator 29.5.0, SVG Export Plug-In . SVG Version: 2.1.0 Build 137)  -->
  <defs>
    <linearGradient id="Unbenannter_Verlauf_5" data-name="Unbenannter Verlauf 5" x1="17.906" y1="46.413" x2="13.674" y2="1.132" gradientUnits="userSpaceOnUse">
      <stop offset="0" stop-color="#006837"/>
      <stop offset=".808" stop-color="#7ac943"/>
    </linearGradient>
  </defs>
  <path d="M15.196,24.949h11.12c.371,0,.906.768.968,1.167.145.929.146,4.567,0,5.494-.232,1.477-1.783,1.018-1.967,1.27-.674,3.248-.723,6.867-1.456,10.074-.388,1.698-1.061,2.781-2.878,3.171-4.279-.325-9.152.418-13.357.005-1.631-.16-2.51-1.269-2.906-2.788l-1.47-10.273-.269-.264c-.598.05-1.614-.221-1.803-.866-.13-.444-.138-5.447-.032-6.008.061-.325.733-.983.974-.983h11.12v-5.515C6.326,19.808.654,15.096.076,8.133c-.307-3.697.189-3.778,3.8-3.444,3.075.285,5.92,1.876,7.935,4.163l1.605,2.396C13.729,4.765,19.343.318,25.597.034c1.201-.055,3.301-.223,3.481,1.337.798,6.894-2.397,13.829-9.75,14.988-1.051.166-2.738-.073-3.609.661-.113.095-.522.648-.522.723v7.206ZM26.939,2.175c-3.811-.304-8.292,1.599-10.216,4.996-.312.551-1.171,2.58-1.171,3.099v2.758c1.859-1.502,3.491-4.207,5.334-5.607.869-.661,1.926-.34,1.887.717-.03.82-3.527,3.853-4.287,4.71-.144.162-1.283,1.492-1.153,1.603,3.77.134,7.414-2.211,8.803-5.696.197-.494.804-2.345.804-2.755v-3.825ZM12.884,17.477c-.079-6.051-4.473-10.926-10.676-10.855-.402,6.241,4.47,11.091,10.676,10.855ZM3.098,26.906v3.914h22.24v-3.914H3.098ZM23.203,32.777H5.233l1.471,10.183c.208.611.757,1.284,1.454,1.215,3.91-.286,8.264.343,12.118-.002.996-.089,1.326-.455,1.635-1.39l1.293-10.005Z" fill="url(#Unbenannter_Verlauf_5)"/>
</svg>