<?xml version="1.0" encoding="UTF-8"?>
<svg id="Ebene_1" xmlns="http://www.w3.org/2000/svg" xmlns:xlink="http://www.w3.org/1999/xlink" version="1.1" viewBox="0 0 39.841 43.29">
  <!-- Generator: Adobe Illustrator 29.5.0, SVG Export Plug-In . SVG Version: 2.1.0 Build 137)  -->
  <defs>
    <linearGradient id="Unbenannter_Verlauf_5" data-name="Unbenannter Verlauf 5" x1="33.173" y1="42.838" x2="29.208" y2=".412" gradientUnits="userSpaceOnUse">
      <stop offset="0" stop-color="#006837"/>
      <stop offset=".808" stop-color="#7ac943"/>
    </linearGradient>
    <linearGradient id="Unbenannter_Verlauf_51" data-name="Unbenannter Verlauf 5" x1="12.114" y1="43.597" x2="8.022" y2="-.192" xlink:href="#Unbenannter_Verlauf_5"/>
  </defs>
  <path d="M39.778,25.668c-.059-.659-.765-1.77-1.433-1.77h-.482c-1.662-.239-3.298-.072-4.945-.008v-4.44c2.294.159,2.792-.055,2.916-.92.012-.031.023-.063.034-.096.091-1.102.147-2.213.216-3.322.425-3.378,1.364-9.119.655-11.313-.07-.217-.155-.421-.247-.619-.006-.014-.011-.029-.018-.043-.007-.017-.016-.032-.024-.048-.018-.038-.037-.075-.056-.112-.941-1.917-2.751-2.808-4.562-2.777-1.811-.032-3.621.86-4.562,2.777-.019.037-.038.075-.056.112-.008.016-.016.031-.024.048-.006.014-.012.029-.018.043-.092.198-.177.402-.247.619-.709,2.194.23,7.935.655,11.313.069,1.109.125,2.22.216,3.322.011.033.022.065.034.096.123.866.622,1.079,2.916.921v4.44c-1.647-.064-3.282-.231-4.945.008h-.482c-.668,0-1.374,1.111-1.433,1.77-.142,1.593-.015,5,.101,6.679.387,5.619,3.87,10.679,7.845,10.585,3.975.094,7.458-4.966,7.845-10.585.116-1.679.243-5.086.101-6.679ZM28.323,38.545c-2.167-2.95-2.16-6.454-2.157-9.94,0-.919-.308-1.741.17-2.751h4.411v6.494c0,.375.564.548,1.086.521.522.028,1.086-.146,1.086-.521v-6.494h4.411c.477,1.009.169,1.832.17,2.751.003,3.486.01,6.989-2.157,9.94-1.185,1.613-2.384,2.333-3.509,2.405-1.125-.072-2.324-.792-3.509-2.405ZM29.635,16.543c-.032-.787-.06-1.597-.135-2.34-.045-.452-.115-.976-.196-1.544l-.64-7.506c.058-.497.193-.93.386-1.299.599-1.075,1.692-1.629,2.784-1.641,1.091.013,2.185.567,2.784,1.641.192.37.327.803.386,1.299l-.64,7.506c-.081.568-.151,1.093-.197,1.544-.075.743-.103,1.553-.135,2.34l-.081.95h-4.233l-.081-.95Z" fill="url(#Unbenannter_Verlauf_5)"/>
  <path d="M14.556,7.173c-.756.061-1.599,1.048-1.738,1.731-.428,2.102-.01,6.312.582,8.41,1.365,4.837,5.965,7.644,6.63,12.052.333,2.212.256,8.311.049,10.64-.142,1.596-1.147,2.868-2.78,3.091-4.349.592-9.916-.41-14.396.016-1.316-.15-2.215-1.127-2.674-2.308.18-5.337-.54-11.338-.061-16.617.333-3.671,3.253-6.521,4.198-9.857.402-1.419.267-4.136.038-5.634-.117-.771-.835-1.549-1.556-1.825-1.808-.692-2.484.671-2.701-2.103C-.042,2.34.805.501,3.438.237c3.313-.333,10.177-.295,13.526-.008,1.073.092,2.633.768,2.892,1.912.109.485.126,3.772.002,4.197-.259.884-2.977.409-3.267.825-.297,2.152-.109,4.377,1.718,5.777.735.564,2.256.793,1.912,1.937-.425,1.412-2.76-.009-3.436-.591-.715-.615-2.228-2.949-2.228-3.821v-3.291ZM18.113,4.859c-.43-1.174.434-2.488-1.152-2.671-4.125-.476-9.13.366-13.351-.002-1.46.163-1.659,1.169-1.49,2.478,1.578.206,3.054,1.086,3.819,2.496.185.341.215.914.34,1.084.302.412,3.856.043,4.61.185.93-3.449,4.19-3.583,7.225-3.571ZM10.642,10.376h-4.092v2.669h4.092v-2.669ZM18.114,38.665H4.681c-.521,0-.597-.765-.63-1.149-.18-2.107-.271-7.444-.002-9.446.032-.235.228-.792.454-.792h12.721c-1.197-2.031-3.014-3.642-4.184-5.69s-1.697-4.28-2.244-6.563h-4.578c-.923,3.074-3.758,6.117-4.094,9.339-.509,4.876.338,10.504-.026,15.461.012.529.442,1.223.987,1.326l14.419-.162c.756-.606.631-1.447.611-2.325ZM6.016,29.235v7.473h12.098v-7.473H6.016Z" fill="url(#Unbenannter_Verlauf_51)"/>
</svg>