<?xml version="1.0" encoding="UTF-8"?>
<svg id="Ebene_1" xmlns="http://www.w3.org/2000/svg" xmlns:xlink="http://www.w3.org/1999/xlink" version="1.1" viewBox="0 0 33.801 44.978">
  <!-- Generator: Adobe Illustrator 29.5.0, SVG Export Plug-In . SVG Version: 2.1.0 Build 137)  -->
  <defs>
    <linearGradient id="Unbenannter_Verlauf_5" data-name="Unbenannter Verlauf 5" x1="19.105" y1="45.499" x2="14.867" y2=".151" gradientUnits="userSpaceOnUse">
      <stop offset="0" stop-color="#006837"/>
      <stop offset=".808" stop-color="#7ac943"/>
    </linearGradient>
  </defs>
  <path d="M15.953,33.59c-2.543-.011-5.216-1.531-6.709-3.561C3.274,30.584-1.416,25.205.393,19.365c.238-.769,1.235-2.2,1.291-2.627.087-.669-.229-2.076-.149-2.992.312-3.599,3.532-6.765,7.082-7.239,2.093-8.697,14.528-8.656,16.619.009,3.585.407,6.783,3.616,7.091,7.231.08.939-.27,2.379-.186,3.018.051.388.946,1.651,1.154,2.241,1.511,4.272-.442,9.148-4.793,10.678-1.314.462-2.73.276-3.707.563-.201.059-1.826,1.65-2.432,2.016-1.348.812-2.897,1.285-4.454,1.506v8.184h7.384c1.26,0,3.828,2.222,1.413,2.836-6.068-.396-12.877.562-18.857.019-2.753-.25-.661-2.855.898-2.855h7.206v-8.362ZM17.91,31.633c1.481-.034,3.146-.753,4.272-1.688.611-.508,1.267-1.665,1.862-1.888.578-.216,2.104.099,2.982-.029,3.178-.464,5.051-3.776,4.769-6.811-.159-1.711-1.881-3.617-1.779-4.598.042-.404.297-.787.349-1.264.277-2.521-1.17-5.247-3.493-6.295-.891-.402-2.847-.479-3.193-.721-.554-.386-.346-1.26-.509-1.803-1.806-5.999-10.633-6.129-12.476,0-.182.606.079,1.312-.518,1.795-.613.496-1.423.25-2.098.393-2.958.626-4.901,3.883-4.58,6.809.067.615.459,1.1.327,1.736-.09.436-.973,1.348-1.25,1.964-1.569,3.49.233,7.834,4.087,8.614,1.164.235,2.098-.056,3.248-.058.751.565,1.096,1.41,1.858,2.069,1.079.933,2.757,1.725,4.185,1.775v-6.494c-.718-.995-5.148-4.211-5.147-5.16,0-.499.471-.989.962-.992.986-.007,3.175,2.832,4.185,3.394v-5.782c0-.87,1.957-.82,1.957-.178v7.384c1.131-.65,3.141-3.344,4.137-3.779,1.229-.537,2.101.714,1.115,1.648l-5.252,4.889v5.071Z" fill="url(#Unbenannter_Verlauf_5)"/>
</svg>