<?xml version="1.0" encoding="UTF-8"?>
<svg id="Ebene_1" xmlns="http://www.w3.org/2000/svg" xmlns:xlink="http://www.w3.org/1999/xlink" version="1.1" viewBox="0 0 32.637 43.345">
  <!-- Generator: Adobe Illustrator 29.5.0, SVG Export Plug-In . SVG Version: 2.1.0 Build 137)  -->
  <defs>
    <linearGradient id="Unbenannter_Verlauf_5" data-name="Unbenannter Verlauf 5" x1="18.829" y1="42.751" x2="14.845" y2=".129" gradientUnits="userSpaceOnUse">
      <stop offset="0" stop-color="#006837"/>
      <stop offset=".808" stop-color="#7ac943"/>
    </linearGradient>
  </defs>
  <path d="M29.228,25.658c-.105-.063-.35-.002-.226-.303.081-.196,1.265-1.344,1.569-1.813,1.629-2.514,2.293-6.087,1.998-9.053-.034-.347.005-.697-.367-.879-1.133-.555-4.463-.013-5.731.317-1.04.271-2.043.682-2.984,1.195,1.141-4.48-.53-8.587-3.469-11.923C19.467,2.573,16.911.042,16.267,0c-.642-.042-2.504,1.77-3.014,2.309-3.269,3.452-5.394,7.987-4.18,12.813-.95-.525-1.956-.922-2.994-1.206-.135-.037-.271-.072-.407-.105-.979-.211-2.5-.445-3.713-.439-.631.003-1.178.07-1.523.239-.371.182-.332.532-.367.879-.288,2.897.341,6.371,1.889,8.874.037.059.071.121.109.179.304.468,1.488,1.617,1.569,1.813.034.082.039.136.028.174l.074.088-1.262.506c-.185.08-.359.154-.517.227-.866.402-1.246.815-.176,2.459.971,1.493,2.455,2.532,4.127,3.133,1.17.42,2.43.624,3.674.614.044-.001.087-.004.131-.006,1.919-.073,3.86-.679,5.587-1.771-.179,4.076-1.341,8.296-3.922,11.484.959,2.506,2.633.053,3.356-1.288,1.577-2.923,2.38-6.894,2.526-10.196,1.085.485,2.095,1.141,3.264,1.449,3.637.957,8.209-.153,10.333-3.419,1.575-2.421.008-2.171-1.628-3.152ZM18.802,29.324c-.863-.547-1.68-1.082-1.328-2.246l6.379-4.56c.529-1.112-.265-1.9-1.429-1.428l-5.166,3.639v-14.5c0-.654-1.957-.824-1.957.178v14.055c0,.03.382.31.09.444l-5.079-3.817c-1.029-.415-1.833.261-1.539,1.1.025.053.049.106.073.159,0,.004,0,.007,0,.011.056.108.13.218.224.328.782.68,6.259,4.258,6.337,4.794.126.871-1.363,1.775-2.062,2.145-1.235.655-2.554.99-3.847,1.007-.83.011-1.65-.109-2.431-.362-1.389-.432-2.655-1.266-3.61-2.514.086-.116.525-.253,1.057-.396,1.104-.374,2.63-.695,2.398-1.615-.07-.277-1.93-1.558-2.379-2.081-.407-.473-.736-.998-1.019-1.549-.724-1.288-1.174-2.775-1.375-4.263-.109-.807-.145-1.613-.112-2.386.002-.056.003-.112.006-.167.411.004.823.029,1.233.071,1.037.025,2.118.286,3.143.671.961.361,1.873.83,2.649,1.319.882.556,2.189,2.193,3.14,1.511.998-.715-.434-2.096-.773-2.989-1.486-3.91-.593-7.294,1.842-10.531.517-.687,1.999-2.425,2.649-2.872.187-.128.192-.222.449-.089.079.041,1.19,1.01,1.343,1.16,3.342,3.27,5.265,7.737,3.42,12.33-.356.886-1.752,2.288-.771,2.991.955.684,2.254-.958,3.141-1.511,2.106-1.312,4.617-2.038,7.103-2.061.164,2.893-.652,6.298-2.665,8.457-.39.418-2.251,1.665-2.297,1.804-.096.295.003.954.278,1.139.477.319,3.035.759,3.258,1.058-2.465,3.223-7.008,3.702-10.376,1.567Z" fill="url(#Unbenannter_Verlauf_5)"/>
</svg>