<?xml version="1.0" encoding="UTF-8"?>
<svg id="Ebene_1" xmlns="http://www.w3.org/2000/svg" xmlns:xlink="http://www.w3.org/1999/xlink" version="1.1" viewBox="0 0 28.665 45.33">
  <!-- Generator: Adobe Illustrator 29.5.0, SVG Export Plug-In . SVG Version: 2.1.0 Build 137)  -->
  <defs>
    <linearGradient id="Unbenannter_Verlauf_5" data-name="Unbenannter Verlauf 5" x1="16.628" y1="45.14" x2="12.424" y2=".16" gradientUnits="userSpaceOnUse">
      <stop offset="0" stop-color="#006837"/>
      <stop offset=".808" stop-color="#7ac943"/>
    </linearGradient>
    <linearGradient id="Unbenannter_Verlauf_51" data-name="Unbenannter Verlauf 5" x1="14.976" y1="19.654" x2="14.036" y2="9.592" xlink:href="#Unbenannter_Verlauf_5"/>
  </defs>
  <path d="M13.552,25.594c-5.63,4.515-13.219-2.055-9.078-8.096C-3.205,14.396.46,3.691,8.391,6.022c.059-8.002,12.038-8.057,12.101,0,7.978-2.49,11.63,8.376,3.917,11.475,3.731,4.969-1.663,11.378-7.297,9.074-.575-.235-.996-.708-1.602-.798v9.605c.423.099.287-.07.397-.23,2.777-4.075,5.517-6.113,10.728-6.352,2.175-.1,1.73,1.317,1.419,2.85-1.204,5.946-6.337,9.804-12.368,9.605-.12,1.105.561,4.074-1.155,4.081-1.688.007-1.047-3.206-1.156-4.259C7.374,41.52.552,36.217.032,30.13c-.186-2.186.406-2.299,2.398-2.221,2.982.117,6.337,1.131,8.546,3.195l2.575,3.385v-8.896ZM21.067,15.85c.405-.408,2.934.066,4.404-1.379,3.128-3.074-.468-8.36-4.487-6.444-1.008.48-1.534,2.113-2.698,1.356-1.027-.668.41-2.573.232-3.968-.617-4.837-8.187-4.454-8.131.519.013,1.186,1.125,2.292.378,3.304-1.283.633-1.45-.302-2.206-.803C4.102,5.482-.128,11.726,3.94,14.834c.43.329,1.025.666,1.559.754.911.151,2.672-.383,2.64,1.023-.018.782-1.785,1.554-2.336,2.569-2.371,4.372,4.193,8.26,7.007,4.16.59-.859.515-2.38,1.72-2.38s1.197,1.766,1.953,2.681c3.384,4.095,10.194-1.532,5.52-5.697-.287-.255-.913-.392-1.069-.71-.163-.333-.124-1.124.132-1.382ZM13.017,39.114c-1.048-5.479-5.097-9.333-10.852-9.072.821,5.32,5.601,8.887,10.852,9.072ZM26.184,30.933c-5.134.2-8.398,3.429-9.785,8.181,5.021.137,8.737-3.452,9.785-8.181Z" fill="url(#Unbenannter_Verlauf_5)"/>
  <path d="M19.559,14.623c0,2.791-2.262,5.053-5.053,5.053s-5.053-2.262-5.053-5.053,2.262-5.053,5.053-5.053,5.053,2.262,5.053,5.053ZM17.507,14.647c0-1.651-1.338-2.989-2.989-2.989s-2.989,1.338-2.989,2.989,1.338,2.989,2.989,2.989,2.989-1.338,2.989-2.989Z" fill="url(#Unbenannter_Verlauf_51)"/>
</svg>