<?xml version="1.0" encoding="UTF-8"?>
<svg id="Ebene_1" xmlns="http://www.w3.org/2000/svg" xmlns:xlink="http://www.w3.org/1999/xlink" version="1.1" viewBox="0 0 33.84 34.573">
  <!-- Generator: Adobe Illustrator 29.5.0, SVG Export Plug-In . SVG Version: 2.1.0 Build 137)  -->
  <defs>
    <linearGradient id="Unbenannter_Verlauf_5" data-name="Unbenannter Verlauf 5" x1="19.572" y1="35.807" x2="16.122" y2="-1.112" gradientUnits="userSpaceOnUse">
      <stop offset="0" stop-color="#006837"/>
      <stop offset=".808" stop-color="#7ac943"/>
    </linearGradient>
  </defs>
  <path d="M15.497,14.105c-6.32.348-12.758-2.393-14.849-8.725C.283,4.273-.711.803.856.443c5.035-1.157,10.918.386,14.077,4.53.702.92,1.124,1.989,1.807,2.905C18.355,1.953,24.463-.39,30.173.052c2.619.203,2.815.45,2.579,3.108-.463,5.233-4.695,9.482-9.747,10.536-2.115.441-5.244-.243-5.552,2.632-.268,2.505.206,5.44-.007,7.995,3.638.439,6.685,2.09,9.027,4.877,2.882-.574,5.434.314,6.844,2.935.568,1.055,1.034,2.419-.645,2.438l-27.848-.1c-1.615-.713.89-4.468,1.603-5.328,2.209-2.668,5.591-4.477,9.068-4.72v-10.319ZM30.618,2.187c-6.057-1.018-12.099,2.458-12.628,8.894,1.113-.806,4.29-4.47,5.44-4.622,1.25-.165,1.676.949.792,1.87-1.163,1.213-3.127,2.124-4.098,3.639,5.409-.03,10.645-4.067,10.495-9.782ZM15.497,11.97C14.782,5.782,10.493,1.915,4.191,2.176c-.686.028-1.342.271-2.038.187.37,4.599,3.589,8.063,8.006,9.164.398.099,1.768.443,2.048.443h3.291ZM30.976,32.787c.076-.335-.113-.344-.297-.504-.64-.557-1.979-1.021-2.818-1.095-.677-.059-1.915.233-2.35.047-.487-.208-1.327-1.619-1.826-2.1-5.212-5.031-14.317-2.878-17.084,3.652h24.375Z" fill="url(#Unbenannter_Verlauf_5)"/>
</svg>