<?xml version="1.0" encoding="UTF-8"?>
<svg id="Ebene_1" xmlns="http://www.w3.org/2000/svg" xmlns:xlink="http://www.w3.org/1999/xlink" version="1.1" viewBox="0 0 38.289 40.599">
  <!-- Generator: Adobe Illustrator 29.5.0, SVG Export Plug-In . SVG Version: 2.1.0 Build 137)  -->
  <defs>
    <linearGradient id="Unbenannter_Verlauf_5" data-name="Unbenannter Verlauf 5" x1="24.645" y1="41.041" x2="20.703" y2="-1.138" gradientUnits="userSpaceOnUse">
      <stop offset="0" stop-color="#006837"/>
      <stop offset=".808" stop-color="#7ac943"/>
    </linearGradient>
    <linearGradient id="Unbenannter_Verlauf_51" data-name="Unbenannter Verlauf 5" x1="7.282" y1="40.385" x2="5.618" y2="22.585" xlink:href="#Unbenannter_Verlauf_5"/>
  </defs>
  <path d="M20.302,9.127l2.573-3.384c2.767-2.531,7.164-3.653,10.682-2.311.292,5.53-3.694,10.114-8.985,11.302-1.098.246-2.316.237-3.35.573-.298.097-.47-.079-.387.404,9.002-2.143,15.41,7.985,10.005,15.392.457.907,1.283.662,2.004,1.154.532.363,4.839,4.671,5.151,5.168,1.047,1.669-.922,3.209-2.483,2.127-.542-.376-4.753-4.569-5.072-5.069-.402-.629-.391-2.305-1.515-1.699-1.381.744-2.037,1.416-3.777,1.742-10.242,1.916-16.105-10.615-8.135-17.031.359-.289,1.778-1.009,1.835-1.1.475-.761-.272-1.855-1.036-2.198-1.551-.697-3.127-.712-4.86-1.722-3.581-2.088-6.558-7.343-5.562-11.542C7.668-.244,8.673-.007,9.691.078c4.756.395,9.809,4.2,10.611,9.05ZM18.519,10.373c-.282-4.764-4.83-7.866-9.249-8.362-.202,4.851,3.025,9.105,7.827,9.963.417-.387-3.576-3.798-3.786-4.323-.252-.631.291-1.429,1.017-1.365.605.054,2.712,2.266,3.216,2.84.34.387.581.946.975,1.247ZM31.687,4.859h-2.58c-.2,0-1.661.419-1.964.527-3.276,1.17-5.627,4.691-6.308,8.013,1.513-.295,3.071-.37,4.542-.883,3.401-1.185,5.567-4.206,6.309-7.657ZM23.681,32.613c8.223-.224,9.865-11.901,2.181-14.724-6.482-2.381-12.563,3.847-9.917,10.273.995,2.417,3.39,4.122,5.956,4.451.077-1.674-.23-3.517-1.245-4.892-.649-.88-2.627-1.82-2.181-2.885.819-1.958,4.036,1.766,4.405,2.795.797-.935,2.105-4.926,3.748-3.924,1.184.722-.507,2.195-.954,2.981-1.047,1.839-1.763,3.807-1.991,5.924Z" fill="url(#Unbenannter_Verlauf_5)"/>
  <path d="M8.332,22.337c2.73-.448,4.122,3.786,4.474,5.938.814,4.983-2.03,11.712-7.59,12.302C1.637,40.958-.216,36.015.02,33.061c.288-3.594,4.632-10.12,8.312-10.724ZM5.712,38.485c5.666-2.234,6.927-9.654,3.255-14.212-4.957,1.831-9.547,9.205-5.302,13.855.43-.911.613-4.826,1.787-4.986,2.514-.343-.136,4.17.26,5.342Z" fill="url(#Unbenannter_Verlauf_51)"/>
</svg>